<svg width="40" height="40" viewBox="0 0 40 40" fill="none" xmlns="http://www.w3.org/2000/svg">
<path d="M16.8002 2.40002C9.29707 2.40002 3.2002 8.4969 3.2002 16C3.2002 23.5031 9.29707 29.6 16.8002 29.6C19.7689 29.6 22.5127 28.6438 24.7502 27.025L35.2752 37.525L37.5252 35.275L27.1252 24.85C29.1689 22.4688 30.4002 19.3781 30.4002 16C30.4002 8.4969 24.3033 2.40002 16.8002 2.40002ZM16.8002 4.00002C23.4377 4.00002 28.8002 9.36252 28.8002 16C28.8002 22.6375 23.4377 28 16.8002 28C10.1627 28 4.8002 22.6375 4.8002 16C4.8002 9.36252 10.1627 4.00002 16.8002 4.00002Z" fill="white"/>
<path fill-rule="evenodd" clip-rule="evenodd" d="M19.7767 10.85L13.4837 15.2098L15.9327 16.6268C16.2786 16.8269 16.3795 17.2993 16.1581 17.682L13.9514 21.496L20.2811 17.2006L17.7766 15.7516C17.4308 15.5514 17.3299 15.079 17.5513 14.6963L19.7767 10.85ZM20.3857 9.35054C20.9255 8.97659 21.5182 9.57389 21.1827 10.1537L18.383 14.9926L21.1801 16.611C21.5585 16.8299 21.5421 17.4162 21.1501 17.6822L13.3514 22.9745C12.8113 23.341 12.226 22.7444 12.5597 22.1676L15.3264 17.3858L12.5895 15.8022C12.2133 15.5846 12.2268 15.003 12.6142 14.7346L20.3857 9.35054Z" fill="white"/>
</svg>
