<svg width="35" height="29" viewBox="0 0 35 29" fill="none" xmlns="http://www.w3.org/2000/svg">
<path fill-rule="evenodd" clip-rule="evenodd" d="M1.875 0C0.812988 0 0 0.812988 0 1.875V26.25C0 27.6245 1.12549 28.75 2.5 28.75C2.5 28.75 32.25 28.75 32.75 28.75C35 28.75 35 27.75 35 26.75V7.5V6.25V5.625C35 4.56299 34.187 3.75 33.125 3.75H17.312C16.8115 3.75 16.3745 3.56201 15.9985 3.18604L13.689 0.876465C13.125 0.3125 12.312 0 11.5015 0H1.875ZM1.875 1.25H11.5015C11.9995 1.25 12.4365 1.43799 12.8125 1.81396L15.1245 4.12354C15.686 4.6875 16.499 5 17.312 5H33.125C33.501 5 33.75 5.24902 33.75 5.625V21.25H9.375C9.02982 21.25 8.75 21.5298 8.75 21.875C8.75 22.2202 9.02982 22.5 9.375 22.5H33.75V26.25V27.5H2.5C1.81152 27.5 1.25 26.9385 1.25 26.25V22.5V21.25V1.875C1.25 1.49902 1.49902 1.25 1.875 1.25ZM5.625 8.75C5.24902 8.75 5 8.99902 5 9.375C5 9.75098 5.24902 10 5.625 10H15C15.376 10 15.625 9.75098 15.625 9.375C15.625 8.99902 15.376 8.75 15 8.75H5.625ZM5.625 11.25C5.24902 11.25 5 11.499 5 11.875C5 12.251 5.24902 12.5 5.625 12.5H11.125C11.501 12.5 11.75 12.251 11.75 11.875C11.75 11.499 11.501 11.25 11.125 11.25H5.625Z" fill="white"/>
</svg>
