<svg width="23" height="23" viewBox="0 0 23 23" fill="none" xmlns="http://www.w3.org/2000/svg">
<path d="M6.00027 1.41974L8.68027 6.8945L7.31027 9.6063C9.99027 15.0913 14.0103 16.4625 14.0103 16.4625L16.6903 15.0913L22.0003 17.7928V21.8861C10.0003 20.5558 3.24027 12.0623 2.00027 1.41974H6.00027ZM6.00027 0.396423H2.00027C1.86485 0.398266 1.7312 0.428241 1.60743 0.484531C1.48366 0.540821 1.37236 0.622253 1.28027 0.723886C1.18127 0.822835 1.10484 0.942932 1.05644 1.0756C1.00804 1.20827 0.988859 1.35024 1.00027 1.49137C2.45027 13.5768 10.2803 21.5791 21.9403 22.9094H22.0003C22.2352 22.907 22.4618 22.8201 22.6403 22.6638C22.7519 22.5687 22.8419 22.4499 22.904 22.3156C22.9662 22.1813 22.9991 22.0347 23.0003 21.8861V17.7928C23.003 17.6097 22.9545 17.4297 22.8606 17.2738C22.7667 17.1179 22.6313 16.9926 22.4703 16.9128L17.1103 14.1703C16.9805 14.1018 16.8363 14.0667 16.6903 14.068C16.5409 14.0654 16.3932 14.1006 16.2603 14.1703L14.0003 15.3778C11.5787 14.1125 9.61379 12.091 8.39027 9.6063L9.51027 7.31406C9.57271 7.17798 9.60508 7.02949 9.60508 6.87915C9.60508 6.72881 9.57271 6.58032 9.51027 6.44424L6.83027 0.938783C6.75447 0.778678 6.63676 0.643223 6.49023 0.547476C6.34371 0.451728 6.1741 0.39944 6.00027 0.396423Z" fill="black"/>
</svg>
