<svg width="14" height="25" viewBox="0 0 14 25" fill="none" xmlns="http://www.w3.org/2000/svg">
<path d="M11 1.39643V4.46638C8 4.46638 8 7.53634 8 9.58298H13V12.6529H8V23.9094H4V12.6529H1V9.58298H4C4 6.51302 4 1.39643 11 1.39643ZM11 0.373108C3.83 0.373108 3.09 5.36691 3 8.55966H1C0.734784 8.55966 0.48043 8.66747 0.292893 8.85938C0.105357 9.05129 0 9.31158 0 9.58298V12.6529C0 12.9243 0.105357 13.1846 0.292893 13.3765C0.48043 13.5684 0.734784 13.6763 1 13.6763H3V23.9094C3 24.1808 3.10536 24.4411 3.29289 24.633C3.48043 24.825 3.73478 24.9328 4 24.9328H8C8.26522 24.9328 8.51957 24.825 8.70711 24.633C8.89464 24.4411 9 24.1808 9 23.9094V13.6763H13C13.2652 13.6763 13.5196 13.5684 13.7071 13.3765C13.8946 13.1846 14 12.9243 14 12.6529V9.58298C14 9.31158 13.8946 9.05129 13.7071 8.85938C13.5196 8.66747 13.2652 8.55966 13 8.55966H9C9.08 6.51302 9.5 5.4897 11 5.4897C11.2652 5.4897 11.5196 5.38189 11.7071 5.18998C11.8946 4.99807 12 4.73779 12 4.46638V1.39643C12 1.12503 11.8946 0.864741 11.7071 0.672831C11.5196 0.480922 11.2652 0.373108 11 0.373108Z" fill="black"/>
</svg>
