<svg width="24" height="18" viewBox="0 0 24 18" fill="none" xmlns="http://www.w3.org/2000/svg">
<path d="M24.0005 1C23.9992 0.898036 23.9824 0.796866 23.9505 0.7L23.8905 0.59C23.8567 0.517618 23.8129 0.450304 23.7605 0.39L23.6705 0.31C23.614 0.254725 23.55 0.207604 23.4805 0.17H23.3705C23.2601 0.0885576 23.1342 0.0306915 23.0005 0H1.00049C0.880567 0.00215505 0.762012 0.0258662 0.650487 0.0700002H0.540487C0.470952 0.107605 0.407002 0.154725 0.350487 0.21L0.260487 0.29C0.208074 0.350304 0.16432 0.417618 0.130487 0.49L0.0704874 0.6C0.0200428 0.727143 -0.00378188 0.863282 0.000487188 1V17C0.000487188 17.2652 0.105844 17.5196 0.293381 17.7071C0.480917 17.8946 0.735271 18 1.00049 18H23.0005C23.2657 18 23.5201 17.8946 23.7076 17.7071C23.8951 17.5196 24.0005 17.2652 24.0005 17V1ZM23.0005 1L12.0005 9L1.00049 1H23.0005ZM1.00049 17V2.24L11.4105 9.81C11.5817 9.93515 11.7884 10.0026 12.0005 10.0026C12.2126 10.0026 12.4192 9.93515 12.5905 9.81L23.0005 2.24V17H1.00049Z" fill="black"/>
</svg>
